<?xml version="1.0" encoding="UTF-8"?>
<svg xmlns="http://www.w3.org/2000/svg" id="Layer_1" data-name="Layer 1" version="1.1" viewBox="0 0 140 59">
  <defs>
    <style>
      .cls-1 {
        fill: #c72642;
      }

      .cls-1, .cls-2 {
        stroke-width: 0px;
      }

      .cls-2 {
        fill: #fff;
      }
    </style>
  </defs>
  <g>
    <g>
      <path class="cls-1" d="M19.2,38.2c-4.4,0-8-2.8-9.1-6.6C4.3,34.7.4,40.9.4,48h19c10.3,0,18.6-8.4,18.6-18.7h-9.4c0,4.9-4.2,8.8-9.4,8.8h0Z"></path>
      <path class="cls-1" d="M19.1,20.5c4.3,0,8,2.8,9.1,6.5,5.8-3.2,9.7-9.3,9.7-16.4h-19C8.7,10.6.4,18.9.4,29.3h9.4c0-4.9,4.2-8.8,9.4-8.8h0Z"></path>
    </g>
    <path class="cls-1" d="M53.4,27.1c-2.5,0-5.6.3-7.8,2.6-1.3,1.3-2.5,3.5-2.5,7s1.5,5.8,2.4,6.7c2.2,2.2,5.4,2.4,8.2,2.4s4.2,0,5.6-.6c2.2-.8,3.9-2.6,4.2-5.3h-4.1c0,.8-.4,1.8-1.8,2.6-1.1.6-2.6.7-3.9.7s-3.5,0-4.9-1.5c-1.2-1.3-1.4-3-1.4-4.1v-.2h16.4v-.5c0-2.3-.2-5-2.3-7-2.2-2.2-5.5-2.6-8-2.6v-.2ZM47.3,34.9c0-1.7.9-3,1.8-3.8,1.4-1.2,3.2-1.4,4.3-1.4s3,0,4.4,1.3c.9.8,1.6,2.3,1.7,3.9h-12.2Z"></path>
    <polygon class="cls-1" points="81 30.4 81 27.8 65.4 27.8 65.4 30.4 76.8 30.4 64.6 42.6 64.6 45.1 81.5 45.1 81.5 42.4 68.9 42.4 81 30.4"></polygon>
  </g>
  <g>
    <path class="cls-2" d="M91.9,42.3c-.4-.5-.5-1.4-.5-2v-9.8h4.1v-2.7h-4.1v-3.9h-4v3.9h-3.8v2.7h3.8v10.6c0,1,0,2.6,1.1,3.6,1,1,3,1.1,3.9,1.1s2.1-.2,3.2-.6v-2.6c-.6.2-1.4.3-2,.3s-1.3,0-1.7-.6Z"></path>
    <path class="cls-2" d="M107.3,27.1c-2.5,0-5.6.3-7.8,2.6-1.3,1.3-2.5,3.5-2.5,7s1.5,5.8,2.4,6.7c2.2,2.2,5.4,2.4,8.2,2.4s4.2,0,5.6-.6c2.2-.8,3.9-2.6,4.2-5.3h-4.1c0,.8-.4,1.8-1.8,2.6-1.1.6-2.6.7-3.9.7s-3.5,0-4.9-1.5c-1.2-1.3-1.4-3-1.4-4.1v-.2h16.4v-.5c0-2.3-.2-5-2.3-7-2.2-2.2-5.5-2.6-8-2.6v-.2ZM101.2,34.9c0-1.7.9-3,1.8-3.8,1.4-1.2,3.2-1.4,4.3-1.4s3,0,4.4,1.3c.9.8,1.6,2.3,1.7,3.9h-12.2Z"></path>
    <path class="cls-2" d="M135.5,38.8c0,1.2-.4,2.3-1.1,3-1.1,1.2-2.8,1.3-4.2,1.3s-3.3-.2-4.6-1.5c-1.6-1.5-1.7-3.8-1.7-5.1s.3-3.7,1.7-5.2c1.3-1.4,2.9-1.6,4.4-1.6s3.1.4,3.7.8c.8.5,1.6,1.4,1.6,2.8h4c0-1.4-.4-3.3-2.7-4.8-2-1.3-4.4-1.5-6.6-1.5s-5.6.2-7.9,2.5c-2.1,2.1-2.5,4.8-2.5,7s.3,4.6,2.4,6.7c2.1,2.1,5.2,2.4,7.7,2.4s6.1-.2,8-2.2c.9-.9,1.8-2.5,1.8-4.7h-4.1.1Z"></path>
  </g>
</svg>
